# xmcd
#
# Track frame offsets: 
#        150
#        7250
#        14490
#        23400
#        33522
#        64685
#        102707
#        129430
#        170162
#        194920
#        233730
#        247330
#        320140
#        329320
#
# Disc length: 4709 seconds
#
# Revision: 11
# Processed by: cddbd v1.5.2PL0 Copyright (c) Steve Scherf et al.
# Submitted via: ExactAudioCopy v1.3
#
DISCID=d212630e
DTITLE=Aretha Franklin - Amazing Grace - The Complete Recordings (LIVE
DTITLE=)
DYEAR=1972
DGENRE=Soul
TTITLE0=Organ Intro (On Our Way)
TTITLE1=Opening Remarks
TTITLE2=On Our Way
TTITLE3=Aretha's Introduction
TTITLE4=Wholly Holy
TTITLE5=You'll Never Walk Alone
TTITLE6=What a Friend We Have in Jesus
TTITLE7=Precious Memories
TTITLE8=How I Got Over
TTITLE9=Precious Lord, Take My Hand - You've Got a Friend
TTITLE10=Climbing Higher Mountains
TTITLE11=Amazing Grace
TTITLE12=My Sweet Lord  (instrumental)
TTITLE13=Give Yourself to Jesus
EXTD=
EXTT0=
EXTT1=
EXTT2=
EXTT3=
EXTT4=
EXTT5=
EXTT6=
EXTT7=
EXTT8=
EXTT9=
EXTT10=
EXTT11=
EXTT12=
EXTT13=
PLAYORDER=
